:FULLY-SPECIFIED
:FORCE-ALL-JOINTS-BE-3DOF
:DEGREES
645
root 5.55654 16.4917 -2.99286 16.7787 13.6792 -1.60357
lfemur -18.9052 22.2405 -26.6581
ltibia 35.794 0 0
lfoot -36.0616 11.1601 0
ltoes 24.4023 0 0
rfemur -56.3108 -27.0141 28.3508
rtibia 63.2871 0 0
rfoot -5.66301 -3.64459 0
rtoes 4.47322 0 0
lowerback -0.859429 -3.57879 -5.0734
upperback -2.3293 -4.78204 0.816312
thorax -1.43621 -2.30694 3.67354
lowerneck -9.54489 -7.89572 -0.224257
upperneck 3.88804 -11.0784 7.87718
head 3.47601 -5.19356 1.95068
lclavicle 5.50634e-14 1.19271e-14 0
lhumerus -42.5451 -68.2693 122.827
lradius 73.7683 0 0
lwrist 24.8853 0 0
lhand -4.44354 2.86914 0
lfingers 7.12502 0 0
lthumb 21.328 31.7155 0
rclavicle 5.50634e-14 1.19271e-14 0
rhumerus -33.5991 4.42662 -75.4864
rradius 73.7453 0 0
rwrist -19.5242 0 0
rhand -28.5506 -37.3401 0
rfingers 7.12502 0 0
rthumb -1.91768 -787.311 0
646
root 5.54708 16.4628 -2.92818 17.0385 12.6033 -1.36989
lfemur -18.9933 22.6933 -26.9966
ltibia 36.1159 0 0
lfoot -36.2102 11.3373 0
ltoes 23.9243 0 0
rfemur -57.315 -27.5774 29.5022
rtibia 63.865 0 0
rfoot -6.16159 -3.44101 0
rtoes 4.06383 0 0
lowerback -0.805767 -3.62823 -5.20094
upperback -2.24734 -4.85085 0.659047
thorax -1.37876 -2.34355 3.58193
lowerneck -9.521 -7.84707 -0.290459
upperneck 3.54051 -10.9867 7.94397
head 3.38305 -5.15937 2.00358
lclavicle 4.33988e-14 9.14991e-15 0
lhumerus -43.0653 -68.7375 123.64
lradius 73.6222 0 0
lwrist 25.0137 0 0
lhand -4.44397 3.12689 0
lfingers 7.12502 0 0
lthumb 21.3276 31.9734 0
rclavicle 4.33988e-14 9.14991e-15 0
rhumerus -34.9777 3.21415 -76.0253
rradius 71.729 0 0
rwrist -18.5857 0 0
rhand -28.7359 -38.5728 0
rfingers 7.12502 0 0
rthumb -2.09661 -788.542 0
647
root 5.54001 16.4324 -2.85814 17.2507 11.4801 -1.11245
lfemur -18.9452 23.1294 -27.3179
ltibia 36.3751 0 0
lfoot -36.3441 11.4352 0
ltoes 23.4174 0 0
rfemur -58.3653 -28.119 30.7196
rtibia 64.5397 0 0
rfoot -6.55714 -3.25337 0
rtoes 3.67199 0 0
lowerback -0.764408 -3.67654 -5.3258
upperback -2.16535 -4.91748 0.474849
thorax -1.31723 -2.3794 3.46038
lowerneck -9.52176 -7.78496 -0.350831
upperneck 3.35173 -10.8832 7.94387
head 3.32703 -5.11621 2.02649
lclavicle 2.76644e-14 5.19855e-15 0
lhumerus -43.5498 -69.1844 124.429
lradius 73.4594 0 0
lwrist 25.0575 0 0
lhand -4.51362 3.32004 0
lfingers 7.12502 0 0
lthumb 21.2607 32.1741 0
rclavicle 2.76644e-14 5.19855e-15 0
rhumerus -36.2246 1.79127 -76.4568
rradius 69.6044 0 0
rwrist -17.8718 0 0
rhand -28.8979 -40.1417 0
rfingers 7.12502 0 0
rthumb -2.25314 -790.11 0
648
root 5.53479 16.4009 -2.78305 17.4206 10.3285 -0.835883
lfemur -18.7822 23.5378 -27.6293
ltibia 36.5774 0 0
lfoot -36.4725 11.4984 0
ltoes 22.8792 0 0
rfemur -59.4154 -28.632 31.9602
rtibia 65.2718 0 0
rfoot -6.8884 -3.1213 0
rtoes 3.32664 0 0
lowerback -0.731035 -3.7275 -5.44719
upperback -2.08487 -4.98722 0.276376
thorax -1.25405 -2.41698 3.32172
lowerneck -9.54148 -7.71019 -0.405608
upperneck 3.27392 -10.7668 7.88967
head 3.29598 -5.06465 2.02584
lclavicle 9.97692e-15 7.65013e-16 0
lhumerus -43.9729 -69.6106 125.166
lradius 73.3015 0 0
lwrist 25.0439 0 0
lhand -4.62491 3.46085 0
lfingers 7.12502 0 0
lthumb 21.1538 32.3269 0
rclavicle 9.97692e-15 7.65013e-16 0
rhumerus -37.3735 0.239569 -76.7669
rradius 67.4564 0 0
rwrist -17.3418 0 0
rhand -29.0373 -41.9078 0
rfingers 7.12502 0 0
rthumb -2.38768 -791.874 0
649
root 5.53089 16.3684 -2.70325 17.5533 9.16731 -0.544829
lfemur -18.5252 23.9075 -27.938
ltibia 36.7287 0 0
lfoot -36.6045 11.5718 0
ltoes 22.3068 0 0
rfemur -60.4192 -29.1097 33.1812
rtibia 66.0218 0 0
rfoot -7.19412 -3.08444 0
rtoes 3.05668 0 0
lowerback -0.701337 -3.78489 -5.56431
upperback -2.00745 -5.06537 0.0762823
thorax -1.19165 -2.45878 3.17877
lowerneck -9.5745 -7.62358 -0.455021
upperneck 3.25929 -10.6367 7.79415
head 3.27795 -5.00527 2.00806
lclavicle -7.54686e-15 -3.45873e-15 0
lhumerus -44.3089 -70.0165 125.822
lradius 73.1701 0 0
lwrist 25 0 0
lhand -4.75026 3.56156 0
lfingers 7.12502 0 0
lthumb 21.0334 32.441 0
rclavicle -7.54686e-15 -3.45873e-15 0
rhumerus -38.4578 -1.35937 -76.9422
rradius 65.3703 0 0
rwrist -16.9552 0 0
rhand -29.1542 -43.7324 0
rfingers 7.12502 0 0
rthumb -2.50065 -793.698 0
650
root 5.52779 16.3355 -2.61907 17.6541 8.01521 -0.243931
lfemur -18.1954 24.2274 -28.2513
ltibia 36.8348 0 0
lfoot -36.7493 11.7001 0
ltoes 21.6979 0 0
rfemur -61.3306 -29.5453 34.3396
rtibia 66.75 0 0
rfoot -7.51302 -3.18244 0
rtoes 2.89106 0 0
lowerback -0.670997 -3.85248 -5.67637
upperback -1.93463 -5.15723 -0.112776
thorax -1.13244 -2.50729 3.04435
lowerneck -9.61512 -7.52596 -0.499303
upperneck 3.26006 -10.4917 7.67009
head 3.261 -4.93863 1.97958
lclavicle -2.27901e-14 -6.7807e-15 0
lhumerus -44.532 -70.4029 126.367
lradius 73.0867 0 0
lwrist 24.9529 0 0
lhand -4.86212 3.63442 0
lfingers 7.12502 0 0
lthumb 20.9259 32.5258 0
rclavicle -2.27901e-14 -6.7807e-15 0
rhumerus -39.5108 -2.92396 -76.9689
rradius 63.4312 0 0
rwrist -16.6714 0 0
rhand -29.2493 -45.4768 0
rfingers 7.12502 0 0
rthumb -2.59244 -795.441 0
651
root 5.52494 16.3025 -2.53084 17.7282 6.89106 0.0621691
lfemur -17.8139 24.4864 -28.5766
ltibia 36.9017 0 0
lfoot -36.9161 11.9282 0
ltoes 21.0496 0 0
rfemur -62.1034 -29.932 35.3926
rtibia 67.417 0 0
rfoot -7.88384 -3.45495 0
rtoes 2.85868 0 0
lowerback -0.635702 -3.93405 -5.78259
upperback -1.86796 -5.26809 -0.278143
thorax -1.07886 -2.56501 2.93128
lowerneck -9.65767 -7.41814 -0.538686
upperneck 3.22846 -10.3311 7.53026
head 3.23316 -4.86532 1.94682
lclavicle -3.36361e-14 -8.50891e-15 0
lhumerus -44.6165 -70.7703 126.772
lradius 73.073 0 0
lwrist 24.9296 0 0
lhand -4.93291 3.69167 0
lfingers 7.12502 0 0
lthumb 20.8579 32.5906 0
rclavicle -3.36361e-14 -8.50891e-15 0
rhumerus -40.5661 -4.37262 -76.8332
rradius 61.724 0 0
rwrist -16.4497 0 0
rhand -29.3228 -47.0022 0
rfingers 7.12502 0 0
rthumb -2.66347 -796.965 0
652
root 5.52183 16.2696 -2.43889 17.7807 5.81363 0.36883
lfemur -17.4017 24.6737 -28.9211
ltibia 36.9351 0 0
lfoot -37.114 12.3006 0
ltoes 20.3595 0 0
rfemur -62.6914 -30.2631 36.2973
rtibia 67.9832 0 0
rfoot -8.34533 -3.94159 0
rtoes 2.98849 0 0
lowerback -0.591138 -4.03337 -5.88217
upperback -1.80897 -5.40325 -0.407164
thorax -1.03332 -2.63444 2.85238
lowerneck -9.69647 -7.30093 -0.573404
upperneck 3.11671 -10.1537 7.38745
head 3.18248 -4.7859 1.91621
lclavicle -3.79679e-14 -7.95139e-15 0
lhumerus -44.5367 -71.1192 127.009
lradius 73.1505 0 0
lwrist 24.9573 0 0
lhand -4.93506 3.74556 0
lfingers 7.12502 0 0
lthumb 20.8558 32.6446 0
rclavicle -3.79679e-14 -7.95139e-15 0
rhumerus -41.6572 -5.62375 -76.5216
rradius 60.334 0 0
rwrist -16.2497 0 0
rhand -29.3753 -48.1698 0
rfingers 7.12502 0 0
rthumb -2.71414 -798.132 0
653
root 5.51911 16.2358 -2.3426 17.7961 4.77956 0.702077
lfemur -16.8636 24.7374 -29.328
ltibia 36.7863 0 0
lfoot -37.4356 12.9013 0
ltoes 19.7481 0 0
rfemur -63.127 -30.5795 37.1034
rtibia 68.4649 0 0
rfoot -8.87908 -4.76896 0
rtoes 3.41498 0 0
lowerback -0.527743 -4.15562 -5.99763
upperback -1.75606 -5.57028 -0.506247
thorax -0.996888 -2.71913 2.81406
lowerneck -9.73546 -7.16835 -0.60503
upperneck 2.92738 -9.95061 7.23066
head 3.10779 -4.69612 1.88433
lclavicle -3.3619e-14 -3.80183e-15 0
lhumerus -44.3266 -71.4523 127.13
lradius 73.3236 0 0
lwrist 25.04 0 0
lhand -4.83611 3.79825 0
lfingers 7.12502 0 0
lthumb 20.9508 32.6865 0
rclavicle -3.3619e-14 -3.80183e-15 0
rhumerus -42.8011 -6.70229 -76.0009
rradius 59.267 0 0
rwrist -16.1208 0 0
rhand -29.4044 -48.9977 0
rfingers 7.12502 0 0
rthumb -2.74229 -798.96 0
654
root 5.51747 16.2004 -2.24148 17.7645 3.77103 1.07471
lfemur -16.1492 24.6701 -29.8051
ltibia 36.4004 0 0
lfoot -37.9036 13.7184 0
ltoes 19.258 0 0
rfemur -63.462 -30.9011 37.8657
rtibia 68.9026 0 0
rfoot -9.44453 -5.94402 0
rtoes 4.15728 0 0
lowerback -0.446164 -4.29917 -6.13718
upperback -1.70733 -5.767 -0.588779
thorax -0.967758 -2.81806 2.80707
lowerneck -9.78101 -7.01768 -0.633881
upperneck 2.70381 -9.71965 7.04485
head 3.01931 -4.59404 1.84432
lclavicle -2.17487e-14 3.7601e-15 0
lhumerus -44.0204 -71.77 127.178
lradius 73.5745 0 0
lwrist 25.155 0 0
lhand -4.64975 3.83956 0
lfingers 7.12502 0 0
lthumb 21.1298 32.7077 0
rclavicle -2.17487e-14 3.7601e-15 0
rhumerus -43.9737 -7.68906 -75.2723
rradius 58.4493 0 0
rwrist -16.1156 0 0
rhand -29.4091 -49.6151 0
rfingers 7.12502 0 0
rthumb -2.74683 -799.577 0
